<?xml version="1.0" encoding="utf-8"?>
<!-- Generator: Adobe Illustrator 26.0.2, SVG Export Plug-In . SVG Version: 6.00 Build 0)  -->
<svg version="1.1" id="Layer_1" xmlns="http://www.w3.org/2000/svg" xmlns:xlink="http://www.w3.org/1999/xlink" x="0px" y="0px"
	 viewBox="0 0 841.9 841.9" style="enable-background:new 0 0 841.9 841.9;" xml:space="preserve">
<style type="text/css">
	.st0{fill:#65727A;}
	.st1{fill:#AD2327;}
</style>
<path class="st0" d="M745.8,428.7c-1-0.6-2.8-1.5-5.3-2.3c-3.6-1.1-8.5-2-14.5-1.1c-2,0.3-4.1,0.8-6.3,1.6c-0.2,0.1-0.4,0.1-0.6,0.2
	c-1.1,0.4-2.2,0.9-3.3,1.5c-0.9,0.5-1.9,1-2.8,1.6c-2.1,1.3-4.2,2.8-6.3,4.3c-2.3-14.1-1.2-27.2-0.7-33.7c0,0,0,0,0.1,0
	c5,3.2,3.6,12,2.5,14.5c0,0.1,0.1,0.1,0.1,0c6.2-7.4,3.2-15.5,1.9-17.5c0-0.1,0-0.1,0.1-0.1c0.9,0.7,1.6,1.5,2.2,2.3
	c1.9,2.5,2.6,5.1,2.8,7.5c0.1,1.2,0.1,2.4,0,3.4c0,0.3,0,0.5-0.1,0.8c0,0,0,0,0.1,0c0,0,0,0,0,0c1.7-3.3,2.5-8.3,0-13.2
	c-0.7-1.3-1.6-2.6-2.8-3.9c-0.3-0.4-0.7-0.7-1.1-1.1c0,0,0-0.1,0-0.1c0.4,0.1,0.7,0.2,1.1,0.3c1.1,0.4,2,0.9,2.8,1.5
	c1.9,1.4,3.2,3.3,3.9,5.3c0.6,1.6,0.9,3.3,0.9,4.9c0,0.1,0.1,0.1,0.1,0c1.2-4.3,0.5-7.6-1-9.9c-1.1-1.7-2.5-2.9-3.9-3.8
	c-1-0.6-2-1-2.8-1.3c-0.5-0.2-1-0.3-1.4-0.3c0,0,0-0.1,0-0.1c0.5,0,0.9-0.1,1.3-0.1c1.1,0,2,0.1,2.8,0.2c1.7,0.3,3,0.9,3.9,1.6
	c1.6,1.1,2.4,2.3,2.7,2.8c0,0.1,0.1,0,0.1,0c-0.2-2.3-1.3-4.1-2.7-5.3c-1.1-1-2.5-1.7-3.9-2.1c-0.9-0.3-1.9-0.4-2.8-0.4
	c-1.3,0-2.5,0.2-3.5,0.6c0,0-0.1,0-0.1-0.1c0.9-1.3,2.2-2.1,3.6-2.5c0.9-0.3,1.9-0.4,2.8-0.3c0.9,0,1.7,0.2,2.3,0.5
	c0.1,0,0.1,0,0.1-0.1c-0.7-0.8-1.5-1.4-2.4-1.9c-0.9-0.5-1.9-0.8-2.8-0.9c-2.5-0.3-5.1,0.8-6.8,3.4c0,0-0.1,0-0.1,0
	c-0.3-0.6-0.6-1.2-0.9-1.9c-0.7-1.6-1.2-3.4-1.5-5.1c0,0-0.1,0-0.1,0c-0.3,1.8-0.9,3.6-1.6,5.2c-0.3,0.7-0.6,1.3-0.9,1.9
	c0,0-0.1,0-0.1,0c-3-4.5-8.6-4.4-12-0.5c0,0,0,0.1,0.1,0.1c2.3-1.1,6.6-0.8,8.7,2.3c0,0,0,0.1-0.1,0.1c-3.3-1.4-8.5-0.5-11.2,2.8
	c-1,1.2-1.6,2.6-1.8,4.4c0,0,0.1,0.1,0.1,0c0.2-0.4,0.8-1.3,1.7-2.1c1.6-1.4,4.4-2.9,9-2.4c0.1,0,0.1,0.1,0,0.1
	c-2.4,0.3-7.2,2.4-9,7.2c-0.8,2.1-1,4.8-0.1,8.1c0,0,0.1,0,0.1,0v-0.2c0-4.4,2.6-10.3,8.8-11.8c0.1,0,0.1,0,0,0.1
	c-6.9,6.1-6.2,13.6-4,18.1c0,0.1,0.1,0,0.1,0c-0.3-3.4-0.5-9.4,5-13.9c0,0,0.1,0,0.1,0.1c-1.3,2.1-4.3,10.2,1.9,17.5
	c0,0.1,0.1,0,0.1,0c-1.1-2.5-2.5-11.3,2.5-14.5c0,0,0.1,0,0.1,0c0.5,6.4,1.7,19.6-0.7,33.7c-4-3.1-8.2-5.8-12.4-7.4
	c-0.5-0.2-1-0.4-1.5-0.5c-4.3-1.4-8.3-1.8-11.7-1.7c-5.6,0.2-9.8,1.9-12.1,3.1c-0.5,0.2-0.9,0.5-1.2,0.6c-0.1,0.1,0,0.3,0.1,0.2
	c0.3-0.1,0.7-0.2,1.1-0.3c4.3-1.2,8.3-1.5,12.1-1.2c4.2,0.4,8.1,1.5,11.7,3.2c5.1,2.3,9.8,5.6,14,9.1c-5.9,5.2-10.9,10.2-14,12
	c-0.1,0.1-0.3,0.2-0.4,0.2c-0.7-1-2-1.6-3.4-1.3c-1.2,0.3-2.2,1.2-2.4,2.4c-0.2,1.1,0,2.2,0.6,2.8c1.6,1.6,3.5,1.7,5.6,0.8
	c4.1-1.7,9.2-7.2,15.5-12.9c0.5-0.5,1.1-1,1.6-1.4c0.5,0.5,1.1,0.9,1.6,1.4c2.8,2.6,5.5,5.1,7.8,7.3c1,0.9,1.9,1.7,2.8,2.5
	c1.4,1.1,2.7,2.1,3.9,2.7c2.4,1.3,4.5,1.4,6.3-0.1c0.1-0.1,0.2-0.2,0.3-0.3c0.4-0.4,0.9-1.8,0.6-2.8c-0.1-0.6-0.5-1.2-0.9-1.6
	c-0.4-0.4-0.9-0.7-1.5-0.8c-1.4-0.3-2.6,0.3-3.4,1.3c-0.4-0.2-0.9-0.5-1.4-0.8c-1.1-0.8-2.4-1.9-3.9-3.2c-0.9-0.8-1.8-1.6-2.8-2.5
	c-1.9-1.8-4.1-3.7-6.3-5.7c2-1.7,4.1-3.3,6.3-4.8c0.9-0.6,1.9-1.2,2.8-1.8c1.3-0.8,2.6-1.5,3.9-2.1c2-1,4.1-1.8,6.3-2.4
	c4.5-1.3,9.3-1.7,14.5-0.9c1.7,0.3,3.4,0.7,5.2,1.2C745.8,429,745.9,428.8,745.8,428.7"/>
<rect x="696.9" y="507.8" transform="matrix(0.7071 -0.7071 0.7071 0.7071 -157.7322 648.2561)" class="st1" width="13.4" height="13.4"/>
<rect x="625.3" y="452.1" transform="matrix(0.3092 -0.951 0.951 0.3092 0.5406 916.0844)" class="st1" width="11.1" height="11.1"/>
<polygon class="st1" points="667.2,359.3 658.1,357.9 656.6,366.9 665.7,368.4 "/>
<polygon class="st1" points="774.7,414.1 768.2,420.6 774.7,427.1 781.2,420.6 "/>
<rect x="766.6" y="394" transform="matrix(0.4538 -0.8911 0.8911 0.4538 65.9951 904.9401)" class="st1" width="9.2" height="9.2"/>
<polygon class="st1" points="656.6,474.2 658.1,483.3 667.2,481.9 665.7,472.8 "/>
<rect x="740.8" y="358.5" transform="matrix(0.9876 -0.1567 0.1567 0.9876 -47.6887 121.2769)" class="st1" width="9.2" height="9.2"/>
<rect x="677.1" y="483.5" transform="matrix(0.8911 -0.4538 0.4538 0.8911 -147.2828 362.5075)" class="st1" width="9.2" height="9.2"/>
<rect x="699" y="345" transform="matrix(0.7071 -0.7071 0.7071 0.7071 -41.0837 599.9199)" class="st1" width="9.2" height="9.2"/>
<rect x="690.2" y="355.8" transform="matrix(0.5879 -0.8089 0.8089 0.5879 -4.8936 709.5521)" class="st1" width="7.6" height="7.6"/>
<polygon class="st1" points="718.6,480.8 712.5,476.3 708,482.4 714.2,486.9 "/>
<polygon class="st1" points="651.1,387.7 643.8,390.1 646.2,397.3 653.4,395 "/>
<rect x="754.9" y="444.8" transform="matrix(0.9512 -0.3087 0.3087 0.9512 -101.4287 256.0815)" class="st1" width="7.6" height="7.6"/>
<rect x="638.8" y="426.4" transform="matrix(0.5877 -0.8091 0.8091 0.5877 -83.1316 697.3704)" class="st1" width="7.6" height="7.6"/>
<rect x="786.3" y="442.9" transform="matrix(0.891 -0.454 0.454 0.891 -117.6908 409.0139)" class="st1" width="13.4" height="13.4"/>
<polygon class="st1" points="640.7,491 642.8,504.3 656.1,502.2 654,488.9 "/>
<polygon class="st1" points="751.2,339 753.3,352.3 766.6,350.2 764.4,336.9 "/>
<rect x="617.4" y="427.8" transform="matrix(0.5879 -0.8089 0.8089 0.5879 -93.8427 682.5168)" class="st1" width="11.1" height="11.1"/>
<rect x="677.1" y="348.4" transform="matrix(0.4538 -0.8911 0.8911 0.4538 57.7635 800.2936)" class="st1" width="9.2" height="9.2"/>
<rect x="631.5" y="394" transform="matrix(0.8909 -0.4542 0.4542 0.8909 -111.6604 332.3851)" class="st1" width="9.2" height="9.2"/>
<rect x="699" y="487" transform="matrix(0.7066 -0.7076 0.7076 0.7066 -141.4325 642.1121)" class="st1" width="9.2" height="9.2"/>
<polygon class="st1" points="756.2,387.7 753.9,395 761.1,397.3 763.5,390.1 "/>
<rect x="656.2" y="460.4" class="st1" width="7.6" height="7.6"/>
<polygon class="st1" points="617.2,382.5 605.3,388.6 611.4,400.6 623.3,394.5 "/>
<rect x="607.6" y="442.9" transform="matrix(0.4543 -0.8909 0.8909 0.4543 -65.3025 792.632)" class="st1" width="13.4" height="13.4"/>
<rect x="661" y="342.2" transform="matrix(0.3084 -0.9513 0.9513 0.3084 130.1655 874.6295)" class="st1" width="11.1" height="11.1"/>
<polygon class="st1" points="747.7,489.8 737.2,486.4 733.7,496.9 744.3,500.4 "/>
<rect x="770.9" y="452.1" transform="matrix(0.951 -0.3091 0.3091 0.951 -103.4447 262.4127)" class="st1" width="11.1" height="11.1"/>
<polygon class="st1" points="785.6,425.6 776.6,432.1 783.1,441.1 792.1,434.6 "/>
<polygon class="st1" points="772.9,376.5 769.4,387.1 780,390.5 783.4,379.9 "/>
<rect x="755.9" y="357.3" class="st1" width="11.1" height="11.1"/>
<rect x="661" y="487.8" transform="matrix(0.9511 -0.3089 0.3089 0.9511 -119.7924 229.9962)" class="st1" width="11.1" height="11.1"/>
<rect x="710.9" y="495.7" transform="matrix(0.5879 -0.8089 0.8089 0.5879 -110.2642 786.0903)" class="st1" width="11.1" height="11.1"/>
<polygon class="st1" points="634.1,436.3 629.9,444.5 638.1,448.7 642.3,440.5 "/>
<rect x="656.2" y="373.1" class="st1" width="7.6" height="7.6"/>
<rect x="638.8" y="407.1" transform="matrix(0.8089 -0.5879 0.5879 0.8089 -118.7927 456.3549)" class="st1" width="7.6" height="7.6"/>
<polygon class="st1" points="726.9,363.1 729.2,370.4 736.5,368 734.1,360.7 "/>
<polygon class="st1" points="708,358.7 712.5,364.9 718.6,360.4 714.1,354.3 "/>
<polygon class="st1" points="749.7,448.5 743.5,449.5 744.5,455.8 750.7,454.8 "/>
<polygon class="st1" points="757.4,416.1 752.9,420.6 757.4,425 761.8,420.6 "/>
<rect x="786.3" y="384.8" transform="matrix(0.4543 -0.8909 0.8909 0.4543 83.9338 920.1305)" class="st1" width="13.4" height="13.4"/>
<rect x="755.8" y="472.8" class="st1" width="11.1" height="11.1"/>
<polygon class="st1" points="634.4,376.5 623.9,379.9 627.3,390.5 637.9,387.1 "/>
<polygon class="st1" points="733.7,344.2 737.2,354.8 747.7,351.4 744.3,340.8 "/>
<polygon class="st1" points="683.1,341.1 692.1,347.7 698.6,338.7 689.6,332.1 "/>
<polygon class="st1" points="773.2,436.3 765,440.5 769.2,448.7 777.4,444.5 "/>
<polygon class="st1" points="632.6,414.1 626.1,420.6 632.6,427.1 639.1,420.6 "/>
<rect x="760.8" y="426.4" transform="matrix(0.8089 -0.5879 0.5879 0.8089 -106.8385 531.7835)" class="st1" width="7.6" height="7.6"/>
<polygon class="st1" points="670.8,473.2 673.1,480.4 680.4,478.1 678.1,470.8 "/>
<polygon class="st1" points="708.1,474.3 703.6,469.8 699.2,474.3 703.6,478.8 "/>
<polygon class="st1" points="675.7,374.5 669.5,373.5 668.5,379.8 674.7,380.7 "/>
<rect x="649.4" y="434" transform="matrix(0.4546 -0.8907 0.8907 0.4546 -33.4702 819.7185)" class="st1" width="6.3" height="6.3"/>
<rect x="640.3" y="357.3" class="st1" width="11.1" height="11.1"/>
<polygon class="st1" points="708.7,338.7 715.2,347.7 724.2,341.1 717.7,332.1 "/>
<polygon class="st1" points="731.8,486.1 723.6,481.9 719.4,490.2 727.6,494.3 "/>
<rect x="641.6" y="457.7" transform="matrix(0.1567 -0.9876 0.9876 0.1567 88.2889 1028.0844)" class="st1" width="9.2" height="9.2"/>
<rect x="756.5" y="374.2" transform="matrix(0.1567 -0.9876 0.9876 0.1567 267.6812 1071.1815)" class="st1" width="9.2" height="9.2"/>
<rect x="743.5" y="460.4" class="st1" width="7.6" height="7.6"/>
<rect x="760.8" y="407.1" transform="matrix(0.5877 -0.8091 0.8091 0.5877 -17.1864 788.1225)" class="st1" width="7.6" height="7.6"/>
<polygon class="st1" points="688.7,480.8 693.1,486.9 699.3,482.4 694.8,476.3 "/>
<rect x="683.9" y="366.3" transform="matrix(0.4545 -0.8907 0.8907 0.4545 45.6437 813.5383)" class="st1" width="6.3" height="6.3"/>
<rect x="717.1" y="468.5" transform="matrix(0.4534 -0.8913 0.8913 0.4534 -26.7263 899.7587)" class="st1" width="6.3" height="6.3"/>
<rect x="732.1" y="460.9" transform="matrix(0.1555 -0.9878 0.9878 0.1555 162.4705 1118.1329)" class="st1" width="6.3" height="6.3"/>
<rect x="649.4" y="400.8" transform="matrix(0.8907 -0.4546 0.4546 0.8907 -112.3233 340.7715)" class="st1" width="6.3" height="6.3"/>
<rect x="751.6" y="434" transform="matrix(0.8907 -0.4546 0.4546 0.8907 -116.2475 390.8397)" class="st1" width="6.3" height="6.3"/>
<polygon class="st1" points="657.6,448.5 656.6,454.8 662.8,455.8 663.8,449.5 "/>
<polygon class="st1" points="731.6,374.5 732.6,380.7 738.8,379.8 737.8,373.5 "/>
<rect x="683.9" y="468.5" transform="matrix(0.8907 -0.4545 0.4545 0.8907 -139.3133 363.8126)" class="st1" width="6.3" height="6.3"/>
<polygon class="st1" points="656.1,339 642.9,336.9 640.7,350.2 654,352.3 "/>
<polygon class="st1" points="766.5,491 753.3,488.9 751.2,502.2 764.4,504.3 "/>
<polygon class="st1" points="694.2,326.6 703.6,336.1 713.1,326.6 703.6,317.1 "/>
<polygon class="st1" points="624.2,400 615.2,406.6 621.7,415.6 630.7,409 "/>
<rect x="778.8" y="402.2" transform="matrix(0.5879 -0.8089 0.8089 0.5879 -6.6727 802.5157)" class="st1" width="11.1" height="11.1"/>
<rect x="640.3" y="472.8" class="st1" width="11.1" height="11.1"/>
<polygon class="st1" points="683.1,500 689.6,509 698.6,502.5 692.1,493.5 "/>
<rect x="740.8" y="473.4" transform="matrix(0.1567 -0.9876 0.9876 0.1567 156.4564 1139.3428)" class="st1" width="9.2" height="9.2"/>
<rect x="641.6" y="374.2" transform="matrix(0.9876 -0.1567 0.1567 0.9876 -51.3806 105.9352)" class="st1" width="9.2" height="9.2"/>
<rect x="756.5" y="457.7" transform="matrix(0.9876 -0.1567 0.1567 0.9876 -63.0454 124.9765)" class="st1" width="9.2" height="9.2"/>
<polygon class="st1" points="719.4,351 723.6,359.2 731.8,355 727.6,346.8 "/>
<rect x="671.8" y="361.7" transform="matrix(0.3086 -0.9512 0.9512 0.3086 119.3785 895.3465)" class="st1" width="7.6" height="7.6"/>
<polygon class="st1" points="736.5,473.2 729.2,470.8 726.9,478.1 734.1,480.4 "/>
<polygon class="st1" points="646.2,443.8 643.8,451.1 651.1,453.4 653.4,446.2 "/>
<rect x="743.5" y="373.1" class="st1" width="7.6" height="7.6"/>
<polygon class="st1" points="708.1,366.9 703.6,362.4 699.2,366.9 703.6,371.3 "/>
<polygon class="st1" points="662.8,385.4 656.6,386.4 657.6,392.6 663.8,391.6 "/>
<polygon class="st1" points="649.9,416.1 645.5,420.6 649.9,425 654.4,420.6 "/>
<rect x="751.6" y="400.8" transform="matrix(0.4546 -0.8907 0.8907 0.4546 51.8211 892.6085)" class="st1" width="6.3" height="6.3"/>
<polygon class="st1" points="744.5,385.4 743.5,391.6 749.7,392.6 750.7,386.4 "/>
<polygon class="st1" points="668.5,461.4 669.4,467.7 675.7,466.7 674.7,460.4 "/>
<rect x="717.1" y="366.3" transform="matrix(0.8907 -0.4545 0.4545 0.8907 -89.2497 367.7363)" class="st1" width="6.3" height="6.3"/>
<path class="st0" d="M300.3,407.9c0-7.5-1.8-13.5-5.3-17.8c-3.3-4.1-8.5-7-15.5-8.9l-2,6.9c9.4,2.4,14.3,8.2,14.7,17.4h-18.5v6.5
	h26.5V407.9z"/>
<path class="st0" d="M246.4,390.7c1.3-1.6,3.2-2.4,5.4-2.4c4.5,0,6.7,3,6.7,8.9v8.3h-4.7c-6.2,0-9.4-2.9-9.4-8.7
	C244.4,394.3,245.1,392.3,246.4,390.7 M252.9,412h13.6v-15.8c0-9.6-4.7-14.3-14.1-14.3c-5.2,0-9.3,1.6-12.2,4.7
	c-2.7,2.9-4.1,6.6-4.1,11C236.2,407.2,241.8,412,252.9,412"/>
<path class="st0" d="M257.1,378c1.2,0,2.1-0.4,2.9-1.2c0.8-0.8,1.2-1.8,1.2-3c0-1.2-0.4-2.2-1.2-3c-0.8-0.8-1.8-1.2-2.9-1.2
	c-1.1,0-2.1,0.4-2.9,1.2c-0.8,0.8-1.2,1.8-1.2,3c0,1.2,0.4,2.2,1.2,3C255,377.5,255.9,378,257.1,378"/>
<path class="st0" d="M351.7,418.3c-0.8,0.8-1.3,1.9-1.3,3c0,1.2,0.4,2.2,1.3,3.1c0.8,0.8,1.8,1.2,3,1.2c1.2,0,2.2-0.4,3-1.3
	c0.8-0.8,1.3-1.9,1.3-3c0-1.2-0.4-2.2-1.3-3c-0.8-0.8-1.9-1.3-3-1.3C353.5,417,352.5,417.5,351.7,418.3"/>
<path class="st0" d="M315.4,390.7c1.3-1.6,3.2-2.4,5.5-2.4c2.4,0,4.3,0.4,5.9,1.1v16h-4c-6.3,0-9.4-2.9-9.4-8.7
	C313.4,394.3,314.1,392.3,315.4,390.7 M321.9,412h4.9v0.9c0,5.5-3.6,8.3-10.8,8.3c-3.2,0-6.5-0.4-9.7-1.1l-0.5,6.7
	c3.2,0.5,6.4,0.8,9.5,0.8c6.6,0,11.6-1.5,15-4.6c3-2.7,4.5-6.4,4.5-11V412h5.2h0.9h30.6c0.7-4.2,1.1-8.1,1.1-11.5
	c0-6.1-1.5-10.6-4.5-13.5c-3.2-3.1-8.2-4.6-15-4.6c-2.4,0-5,0.2-8,0.6v6.4c2.5-0.3,4.8-0.5,7.1-0.5c4.4,0,7.6,1,9.5,3
	c1.8,1.9,2.7,4.9,2.7,8.9c0,1.5-0.1,3.1-0.3,4.8h-23.2h-0.9h-5.2V384c-3.8-1.4-8.1-2.2-13-2.2c-5.4,0-9.6,1.6-12.6,4.8
	c-2.6,2.8-4,6.5-4,10.9C305.2,407.2,310.8,412,321.9,412"/>
<path class="st0" d="M246.7,378c1.2,0,2.2-0.4,3-1.2c0.8-0.8,1.2-1.8,1.2-3c0-1.2-0.4-2.2-1.2-3c-0.8-0.8-1.8-1.2-3-1.2
	c-1.1,0-2.1,0.4-2.9,1.2c-0.8,0.8-1.2,1.8-1.2,3c0,1.2,0.4,2.2,1.2,3C244.6,377.5,245.6,378,246.7,378"/>
<path class="st0" d="M549.4,381.5H541V405h-5h-2.5h-4.1v-23.4h-8.5v30.8c0,6.9-2.6,9-6.9,9c-2,0-3.6-0.3-5.2-0.8l-0.6,6.7
	c1.5,0.4,3.4,0.6,5.4,0.6c13,0,15.8-7.8,15.8-16v-0.3h4.1h2.5h13.5V381.5z"/>
<path class="st0" d="M502.9,377.6c2.4,0,4.4-2,4.4-4.4c0-2.4-2.1-4.4-4.4-4.4c-2.4,0-4.4,2.1-4.4,4.4
	C498.5,375.6,500.5,377.6,502.9,377.6"/>
<path class="st0" d="M549.2,420.3c0-2.6-1.9-4.4-4.4-4.4c-2.5,0-4.4,1.9-4.4,4.4c0,2.4,1.9,4.3,4.4,4.3
	C547.3,424.6,549.2,422.8,549.2,420.3"/>
<polygon class="st0" points="492.1,411.6 507.1,411.6 507.1,381.5 498.7,381.5 498.7,405 492.1,405 491.1,405 485.5,405 
	485.5,366.5 477,366.5 477,411.6 491.1,411.6 "/>
<path class="st0" d="M415.5,420.3c0,2.4,1.9,4.3,4.3,4.3c2.4,0,4.4-1.9,4.4-4.3c0-2.6-1.9-4.4-4.4-4.4
	C417.4,415.9,415.5,417.8,415.5,420.3"/>
<path class="st0" d="M452.7,387.3c4.3,0,6.8,2.7,6.8,9.1v8.5h-4.9c-6.6,0-9.6-2.9-9.6-9C445.1,391,447.9,387.3,452.7,387.3
	 M413.6,432.1l0.6-6.7c-7.4,0-10.6-3.3-10.6-6.8c0-3.9,2.6-7.1,12-7.1h16.2h1h35.1v-16.2c0-9-4.5-14.7-14.5-14.7
	c-11.1,0-16.6,7.4-16.6,15.6c0,4.5,1.2,7.4,3.6,9.1c0,0-1.3-0.4-3.6-0.4h-4h-1h-3.1c0.2-1.9,0.3-3.7,0.3-5.2
	c0-12.3-5.7-18.6-20.1-18.6c-2.8,0-5.7,0.3-8.2,0.6v6.6c2.4-0.3,4.7-0.5,7.4-0.5c9.2,0,12.5,4.2,12.5,12.3c0,1.6-0.1,3.3-0.3,4.9
	h-4.4c-14.6,0-20.7,6.1-20.7,14.2C395.2,426.6,401,432.1,413.6,432.1"/>
<path class="st0" d="M133.7,415.4c-2.3,0-4.2,1.9-4.2,4.2c0,2.2,1.8,4.2,4.2,4.2c2.3,0,4.2-1.9,4.2-4.2
	C137.9,417.2,136,415.4,133.7,415.4"/>
<path class="st0" d="M144,415.4c-2.3,0-4.2,1.9-4.2,4.2c0,2.2,1.8,4.2,4.2,4.2c2.3,0,4.2-1.9,4.2-4.2
	C148.1,417.2,146.2,415.4,144,415.4"/>
<path class="st0" d="M190.2,404h-6.6h-4c0.2-1.9,0.3-3.7,0.3-5.2c0-12.3-5.7-18.6-20.1-18.6c-2.8,0-5.5,0.3-7.9,0.7v6.6
	c2.3-0.4,4.7-0.6,7.2-0.6c9.2,0,12.5,4.2,12.5,12.3c0,1.6-0.1,3.3-0.3,4.9h-21.4h-1h-5.6v-23.4h-8.5V404h-6.6h-6.8h3.1h-1.9h-4.9
	h-1.9h-1h9.9h-1h0.8h-4.5h-2.2h-4.5h1h-5.8h-1h-5.8h-1h-5.8h-6.6v-38.5h-8.4v45.1h14.1h6.8h1h5.8h1h5.8h-1h4.5h2.2h4.5h-3.1h2.3h1
	h-8.9h1.9h4.9h1.9h-3.1h6.8h20.7h1h32.9h0h16v-45.1h-8.4V404z"/>
<rect x="208.9" y="365.6" class="st0" width="8.5" height="45.1"/>
<path class="st0" d="M57.5,369.4c-0.8,0.8-1.2,1.8-1.2,3c0,1.2,0.4,2.2,1.2,3c0.8,0.8,1.8,1.2,2.9,1.2c1.2,0,2.1-0.4,2.9-1.2
	c0.8-0.8,1.2-1.8,1.2-3c0-1.2-0.4-2.2-1.2-3c-0.8-0.8-1.8-1.3-2.9-1.3C59.3,368.2,58.4,368.6,57.5,369.4"/>
<path class="st0" d="M47.2,369.4c-0.8,0.8-1.2,1.8-1.2,3c0,1.2,0.4,2.2,1.2,3c0.8,0.8,1.8,1.2,2.9,1.2c1.2,0,2.2-0.4,3-1.2
	c0.8-0.8,1.2-1.8,1.2-3c0-1.2-0.4-2.2-1.2-3c-0.8-0.8-1.8-1.3-3-1.3C49,368.2,48,368.6,47.2,369.4"/>
<path class="st0" d="M61.9,404.2h-4.7c-6.3,0-9.4-2.9-9.4-8.7c0-2.5,0.7-4.5,2-6c1.3-1.6,3.2-2.4,5.5-2.4c4.4,0,6.7,2.9,6.7,8.9
	V404.2z M55.9,380.6c-5.2,0-9.3,1.6-12.2,4.7c-2.7,2.9-4.1,6.6-4.1,11.1c0,9.6,5.6,14.4,16.7,14.4h13.6v-15.8
	C69.9,385.4,65.2,380.6,55.9,380.6"/>
<path class="st0" d="M56,469.1c0.3-0.1,0.7-0.2,1.2-0.4l-2.6-2.5l2.8-2.9l2.6,2.5c0.4-0.8,0.7-1.6,0.9-2.2c0.3-1,0.4-2.1,0.4-3.3
	c0-2.9-0.6-5.2-1.8-6.7c-1.2-1.6-2.9-2.4-5.2-2.4c-2.1,0-3.9,0.8-5.1,2.3c-1.3,1.5-1.9,3.8-1.9,6.8c0,3.6,0.9,6.1,2.7,7.6
	c1.2,1,2.6,1.5,4.2,1.5C54.8,469.3,55.4,469.3,56,469.1 M65.8,465.6c-0.5,1.5-1.1,2.7-2,3.7l3,2.8l-2.8,3l-3.1-3
	c-0.9,0.6-1.8,1-2.5,1.2c-1.2,0.4-2.5,0.6-4.2,0.6c-3.4,0-6.2-1-8.4-3c-2.7-2.4-4-6-4-10.7c0-4.7,1.4-8.3,4.1-10.7c2.2-2,5-3,8.3-3
	c3.4,0,6.2,1.1,8.4,3.2c2.6,2.4,3.9,5.8,3.9,10.2C66.7,462.1,66.4,464.1,65.8,465.6"/>
<path class="st0" d="M71.2,448.5h5.5v15.9c0,1.8,0.2,3.1,0.6,3.9c0.7,1.4,2.1,2.2,4.3,2.2c2.2,0,3.6-0.7,4.3-2.2
	c0.4-0.8,0.6-2.1,0.6-3.9v-15.9H92v15.9c0,2.8-0.4,4.9-1.3,6.4c-1.6,2.8-4.6,4.2-9.1,4.2s-7.5-1.4-9.1-4.2c-0.9-1.5-1.3-3.7-1.3-6.4
	V448.5z"/>
<path class="st0" d="M104.6,465.3h6.6l-3.3-10.2L104.6,465.3z M104.9,449.2h6.1l9.2,25.9h-5.9l-1.7-5.3h-9.5l-1.8,5.3h-5.7
	L104.9,449.2z"/>
<polygon class="st0" points="123.9,449.2 129.3,449.2 129.3,470.4 142.2,470.4 142.2,475.1 123.9,475.1 "/>
<rect x="145.8" y="449.2" class="st0" width="5.4" height="25.9"/>
<polygon class="st0" points="175.4,449.2 175.4,453.8 167.7,453.8 167.7,475.1 162.2,475.1 162.2,453.8 154.4,453.8 154.4,449.2 "/>
<polygon class="st0" points="193.7,449.2 199.9,449.2 191.2,465.4 191.2,475.1 185.8,475.1 185.8,465.4 176.8,449.2 183.2,449.2 
	188.6,460.4 "/>
<path class="st0" d="M229.6,468.1c1.3-1.6,1.9-3.8,1.9-6.7c0-2.9-0.6-5.2-1.9-6.7c-1.3-1.6-3-2.4-5.1-2.4s-3.9,0.8-5.1,2.4
	c-1.3,1.6-1.9,3.8-1.9,6.8c0,2.9,0.6,5.2,1.9,6.7c1.3,1.6,3,2.4,5.1,2.4S228.4,469.7,229.6,468.1 M233,472.1c-2,2-4.8,3-8.5,3
	c-3.7,0-6.5-1-8.5-3c-2.6-2.5-3.9-6-3.9-10.7c0-4.8,1.3-8.3,3.9-10.7c2-2,4.8-3,8.5-3c3.7,0,6.5,1,8.5,3c2.6,2.4,3.9,5.9,3.9,10.7
	C236.9,466,235.6,469.6,233,472.1"/>
<polygon class="st0" points="241.4,449.2 259.9,449.2 259.9,453.8 246.8,453.8 246.8,459.7 258.3,459.7 258.3,464.2 246.8,464.2 
	246.8,475.1 241.4,475.1 "/>
<polygon class="st0" points="274.1,449.2 279.5,449.2 279.5,470.4 292.5,470.4 292.5,475.1 274.1,475.1 "/>
<rect x="296" y="449.2" class="st0" width="5.4" height="25.9"/>
<polygon class="st0" points="306.8,449.2 325.3,449.2 325.3,453.8 312.2,453.8 312.2,459.7 323.7,459.7 323.7,464.2 312.2,464.2 
	312.2,475.1 306.8,475.1 "/>
<polygon class="st0" points="348.4,453.8 334.6,453.8 334.6,459.3 347.2,459.3 347.2,463.8 334.6,463.8 334.6,470.4 349,470.4 
	349,475.1 329.3,475.1 329.3,449.2 348.4,449.2 "/>
<path class="st0" d="M377.2,454.5c-0.7-0.6-1.6-0.9-2.9-0.9h-4.9v7.6h4.9c1.2,0,2.2-0.3,2.9-0.9c0.7-0.6,1-1.6,1-3
	C378.2,456.1,377.9,455.1,377.2,454.5 M381.3,463.9c-1.5,1.3-3.7,1.9-6.5,1.9h-5.4v9.3h-5.4v-25.9h11.1c2.6,0,4.6,0.7,6.1,2
	c1.5,1.3,2.3,3.4,2.3,6.2C383.6,460.4,382.8,462.6,381.3,463.9"/>
<path class="st0" d="M393.7,453.7v7h5.8c1.2,0,2-0.1,2.6-0.4c1-0.5,1.5-1.5,1.5-2.9c0-1.6-0.5-2.6-1.5-3.2c-0.6-0.3-1.4-0.5-2.5-0.5
	H393.7z M404.9,449.8c1,0.4,1.8,1,2.4,1.8c0.5,0.7,1,1.4,1.3,2.2c0.3,0.8,0.5,1.7,0.5,2.7c0,1.2-0.3,2.4-0.9,3.6
	c-0.6,1.2-1.6,2-3.1,2.5c1.2,0.5,2,1.2,2.5,2c0.5,0.9,0.7,2.2,0.7,4.1v1.7c0,1.2,0,2,0.1,2.4c0.1,0.7,0.5,1.2,1,1.5v0.7h-6
	c-0.2-0.6-0.3-1-0.3-1.4c-0.1-0.7-0.2-1.5-0.2-2.2l0-2.4c0-1.7-0.3-2.8-0.9-3.3c-0.5-0.5-1.6-0.8-3.1-0.8h-5.3v10.2h-5.3v-25.9h12.4
	C402.6,449.2,404,449.4,404.9,449.8"/>
<path class="st0" d="M431.2,468.1c1.3-1.6,1.9-3.8,1.9-6.7c0-2.9-0.6-5.2-1.9-6.7c-1.3-1.6-3-2.4-5.1-2.4c-2.1,0-3.9,0.8-5.1,2.4
	c-1.3,1.6-1.9,3.8-1.9,6.8c0,2.9,0.6,5.2,1.9,6.7c1.3,1.6,3,2.4,5.1,2.4C428.3,470.5,430,469.7,431.2,468.1 M434.6,472.1
	c-2,2-4.8,3-8.5,3c-3.7,0-6.5-1-8.5-3c-2.6-2.5-3.9-6-3.9-10.7c0-4.8,1.3-8.3,3.9-10.7c2-2,4.8-3,8.5-3c3.7,0,6.5,1,8.5,3
	c2.6,2.4,3.9,5.9,3.9,10.7C438.5,466,437.2,469.6,434.6,472.1"/>
<path class="st0" d="M460.5,456.6c-0.4-1.8-1.4-3-3-3.7c-0.9-0.4-1.9-0.6-3-0.6c-2.1,0-3.8,0.8-5.1,2.4c-1.3,1.6-2,3.9-2,7.1
	c0,3.2,0.7,5.4,2.2,6.8c1.5,1.3,3.1,2,5,2c1.8,0,3.3-0.5,4.5-1.6c1.2-1,1.9-2.4,2.1-4.1h-6v-4.3h10.8v13.9h-3.6l-0.5-3.2
	c-1,1.2-2,2.1-2.8,2.6c-1.4,0.9-3.2,1.3-5.3,1.3c-3.4,0-6.3-1.2-8.4-3.6c-2.3-2.4-3.4-5.7-3.4-9.8c0-4.2,1.2-7.6,3.5-10.1
	c2.3-2.5,5.4-3.8,9.2-3.8c3.3,0,5.9,0.8,7.9,2.5c2,1.7,3.1,3.8,3.4,6.3H460.5z"/>
<path class="st0" d="M476.8,453.7v7h5.8c1.2,0,2-0.1,2.6-0.4c1-0.5,1.5-1.5,1.5-2.9c0-1.6-0.5-2.6-1.5-3.2c-0.6-0.3-1.4-0.5-2.5-0.5
	H476.8z M488,449.8c1,0.4,1.8,1,2.4,1.8c0.5,0.7,1,1.4,1.3,2.2c0.3,0.8,0.5,1.7,0.5,2.7c0,1.2-0.3,2.4-0.9,3.6
	c-0.6,1.2-1.6,2-3.1,2.5c1.2,0.5,2,1.2,2.5,2c0.5,0.9,0.7,2.2,0.7,4.1v1.7c0,1.2,0,2,0.1,2.4c0.1,0.7,0.5,1.2,1,1.5v0.7h-6
	c-0.2-0.6-0.3-1-0.3-1.4c-0.1-0.7-0.2-1.5-0.2-2.2l0-2.4c0-1.7-0.3-2.8-0.9-3.3c-0.5-0.5-1.6-0.8-3.1-0.8h-5.3v10.2h-5.3v-25.9h12.4
	C485.7,449.2,487.1,449.4,488,449.8"/>
<path class="st0" d="M504.8,465.3h6.6l-3.3-10.2L504.8,465.3z M505.2,449.2h6.1l9.2,25.9h-5.9l-1.7-5.3h-9.5l-1.8,5.3h-5.7
	L505.2,449.2z"/>
<path class="st0" d="M541.3,449.2h7.8v25.9h-5v-17.5c0-0.5,0-1.2,0-2.1c0-0.9,0-1.6,0-2.1l-4.9,21.7h-5.3l-4.9-21.7
	c0,0.5,0,1.2,0,2.1c0,0.9,0,1.6,0,2.1v17.5h-5v-25.9h7.9l4.7,20.4L541.3,449.2z"/>
</svg>
