<?xml version="1.0" encoding="iso-8859-1"?>
<!-- Generator: Adobe Illustrator 23.0.1, SVG Export Plug-In . SVG Version: 6.00 Build 0)  -->
<svg version="1.1" id="Layer_1" xmlns="http://www.w3.org/2000/svg" xmlns:xlink="http://www.w3.org/1999/xlink" x="0px" y="0px"
	 viewBox="0 0 512 512" style="enable-background:new 0 0 512 512;" xml:space="preserve">
<g>
	<g>
		<path style="fill:#757B81;stroke:#757B81;stroke-miterlimit:10;" d="M44.018,237.384c-8.512,0-12.768-3.78-12.768-11.342
			c0-3.455,1.022-6.285,3.067-8.488c2.203-2.393,5.239-3.59,9.106-3.59c6.942,0,10.414,3.638,10.414,10.913v12.507H44.018z
			 M49.463,225.638c0-5.421-2.14-8.132-6.42-8.132c-2.251,0-4.026,0.745-5.326,2.235c-1.3,1.443-1.95,3.392-1.95,5.849
			c0,5.485,2.956,8.226,8.869,8.226h4.827V225.638z M37.694,209.28c-0.492-0.507-0.737-1.141-0.737-1.902
			c0-0.698,0.245-1.3,0.737-1.808c0.491-0.507,1.101-0.761,1.83-0.761c0.713,0,1.324,0.246,1.831,0.737
			c0.507,0.507,0.761,1.118,0.761,1.831c0,0.729-0.254,1.355-0.761,1.878c-0.507,0.507-1.118,0.761-1.831,0.761
			C38.795,210.017,38.185,209.771,37.694,209.28z M44.874,209.28c-0.508-0.507-0.761-1.141-0.761-1.902
			c0-0.698,0.253-1.3,0.761-1.808c0.507-0.507,1.125-0.761,1.855-0.761c0.713,0,1.315,0.246,1.807,0.737
			c0.491,0.507,0.737,1.118,0.737,1.831c0,0.745-0.246,1.371-0.737,1.878c-0.492,0.507-1.094,0.761-1.807,0.761
			C45.999,210.017,45.381,209.771,44.874,209.28z"/>
		<path style="fill:#757B81;stroke:#757B81;stroke-miterlimit:10;" d="M60.496,233.817h15.621c-0.063-4.485-1.046-8.02-2.948-10.604
			c-1.934-2.616-5.041-4.581-9.321-5.897l1.118-3.804c5.405,1.68,9.328,4.137,11.769,7.371c2.552,3.393,3.828,8.084,3.828,14.076
			v2.425H60.496V233.817z"/>
		<path style="fill:#757B81;stroke:#757B81;stroke-miterlimit:10;" d="M85.553,248.963l0.309-3.733
			c2.726,0.618,5.318,0.927,7.775,0.927c6.198,0,9.297-2.536,9.297-7.608v-1.165h-4.898c-8.512,0-12.768-3.78-12.768-11.342
			c0-3.44,1.007-6.261,3.02-8.465c2.203-2.409,5.286-3.614,9.249-3.614c3.567,0,6.832,0.571,9.796,1.712v18.142h5.35v3.567h-5.35
			v0.928c0,3.201-1.054,5.809-3.162,7.822c-2.489,2.377-6.158,3.566-11.009,3.566C90.657,249.7,88.121,249.455,85.553,248.963z
			 M102.934,218.648c-1.586-0.761-3.543-1.141-5.873-1.141c-2.251,0-4.026,0.737-5.326,2.211c-1.3,1.459-1.95,3.4-1.95,5.825
			c0,5.516,2.956,8.274,8.869,8.274h4.28V218.648z"/>
		<path style="fill:#757B81;stroke:#757B81;stroke-miterlimit:10;" d="M112.017,233.817h20.115c0.222-1.981,0.333-3.645,0.333-4.993
			c0-3.804-0.777-6.555-2.33-8.251c-1.665-1.808-4.439-2.711-8.322-2.711c-1.934,0-3.741,0.111-5.421,0.333v-3.495
			c1.712-0.27,3.646-0.404,5.801-0.404c5.215,0,9.003,1.204,11.366,3.614c2.235,2.283,3.352,5.801,3.352,10.557
			c0,2.822-0.261,5.794-0.785,8.916h-24.109V233.817z M121.646,246.562c-0.508-0.507-0.761-1.133-0.761-1.878
			c0-0.729,0.253-1.347,0.761-1.855c0.507-0.507,1.125-0.761,1.855-0.761c0.745,0,1.379,0.246,1.902,0.738
			c0.524,0.507,0.785,1.133,0.785,1.878c0,0.729-0.261,1.355-0.785,1.878c-0.523,0.507-1.157,0.761-1.902,0.761
			C122.771,247.323,122.153,247.069,121.646,246.562z"/>
	</g>
	<path style="fill:#757B81;" d="M167.911,237.095c-7.402,0-9.402,2.453-9.402,5.503c0,2.749,2.502,5.3,8.251,5.3l-0.448,5.203
		c-9.804,0-14.354-4.3-14.354-10.103c0-6.301,4.753-11.102,16.204-11.102h3.4c0.151-1.202,0.251-2.551,0.251-3.802
		c0-6.35-2.603-9.601-9.802-9.601c-2.053,0-3.903,0.151-5.753,0.401v-5.154c1.952-0.247,4.251-0.45,6.402-0.45
		c11.253,0,15.705,4.952,15.705,14.552c0,1.203-0.052,2.604-0.203,4.054h3.151v5.199H167.911z M171.21,240.447
		c1.903,0,3.402,1.401,3.402,3.402c0,1.952-1.498,3.4-3.402,3.4c-1.948,0-3.398-1.501-3.398-3.4
		C167.812,241.897,169.262,240.447,171.21,240.447 M180.551,237.095c-0.999,0-3-0.999-3-2.599c0-1.551,2.001-2.6,3-2.6h3.851
		c1.749,0,2.801,0.348,2.801,0.348c-1.85-1.349-2.801-3.601-2.801-7.15c0-6.354,4.353-12.152,13.001-12.152
		c7.803,0,11.304,4.499,11.304,11.503v12.649H180.551z M202.255,225.243c0-5-2-7.102-5.348-7.102c-3.754,0-5.952,2.851-5.952,6.754
		c0,4.701,2.3,7.001,7.502,7.001h3.798V225.243z M215.897,201.841h6.599v30.056h5.154v5.199h-11.754V201.841z M226.895,237.095
		c-1.002,0-3.001-0.999-3.001-2.599c0-1.551,2-2.6,3.001-2.6h5.899v-18.305h6.603v23.504H226.895z M236.094,203.638
		c1.85,0,3.455,1.551,3.455,3.454c0,1.9-1.604,3.45-3.455,3.45c-1.898,0-3.45-1.6-3.45-3.45
		C232.644,205.241,234.243,203.638,236.094,203.638 M240.192,249.299l0.498-5.251c1.203,0.352,2.454,0.603,4.053,0.603
		c3.402,0,5.401-1.603,5.401-7.005v-24.055h6.601v18.305h5.151v5.199h-5.151v0.203c0,6.401-2.199,12.504-12.353,12.504
		C242.844,249.801,241.39,249.599,240.192,249.299 M259.936,237.095c-1,0-3.001-0.999-3.001-2.599c0-1.551,2.001-2.6,3.001-2.6
		h5.903v-18.305h6.599v23.504H259.936z M268.839,240.447c1.9,0,3.402,1.401,3.402,3.402c0,1.952-1.502,3.4-3.402,3.4
		c-1.952,0-3.402-1.501-3.402-3.4C265.438,241.897,266.888,240.447,268.839,240.447"/>
	<path style="fill:#757B81;" d="M433.604,262.793c-0.818-0.468-2.327-1.243-4.395-1.898c-2.989-0.956-7.15-1.668-12.087-0.884
		c-1.66,0.262-3.409,0.7-5.228,1.349c-0.177,0.063-0.348,0.12-0.525,0.186c-0.921,0.346-1.847,0.765-2.772,1.229
		c-0.787,0.401-1.574,0.84-2.359,1.311c-1.789,1.068-3.551,2.301-5.271,3.615c-1.944-11.789-0.996-22.73-0.543-28.104
		c0.004-0.031,0.041-0.046,0.063-0.031c4.176,2.63,3.009,9.968,2.132,12.069c-0.02,0.042,0.044,0.068,0.075,0.035
		c5.203-6.147,2.663-12.931,1.592-14.647c-0.023-0.041,0.03-0.079,0.067-0.052c0.75,0.614,1.364,1.259,1.885,1.921
		c1.609,2.053,2.199,4.274,2.359,6.234c0.086,1.038,0.061,1.996,0,2.816c-0.015,0.221-0.031,0.431-0.048,0.625
		c-0.004,0.035,0.021,0.042,0.048,0.035c0.011-0.004,0.022,0,0.026-0.012c1.408-2.752,2.083-6.924-0.026-10.975
		c-0.569-1.093-1.345-2.184-2.359-3.232c-0.297-0.3-0.607-0.603-0.945-0.896c-0.03-0.026-0.004-0.082,0.037-0.074
		c0.315,0.074,0.615,0.168,0.908,0.269c0.888,0.311,1.67,0.734,2.359,1.244c1.581,1.161,2.652,2.764,3.297,4.434
		c0.529,1.376,0.771,2.799,0.763,4.056c0,0.046,0.068,0.049,0.079,0.005c0.977-3.592,0.389-6.308-0.842-8.291
		c-0.881-1.415-2.091-2.46-3.297-3.183c-0.82-0.495-1.644-0.839-2.359-1.052c-0.42-0.127-0.807-0.214-1.131-0.251
		c-0.048-0.004-0.038-0.075,0.007-0.083c0.389-0.035,0.765-0.057,1.124-0.061c0.876-0.019,1.655,0.061,2.359,0.191
		c1.397,0.258,2.477,0.75,3.297,1.303c1.322,0.896,1.981,1.94,2.21,2.364c0.019,0.041,0.081,0.015,0.074-0.03
		c-0.183-1.9-1.064-3.379-2.284-4.447c-0.945-0.82-2.094-1.397-3.297-1.73c-0.779-0.217-1.58-0.33-2.359-0.341
		c-1.065-0.011-2.08,0.162-2.952,0.527c-0.033,0.02-0.072-0.026-0.049-0.063c0.768-1.094,1.854-1.768,3.002-2.116
		c0.789-0.243,1.603-0.326,2.359-0.282c0.728,0.041,1.402,0.199,1.94,0.453c0.035,0.019,0.072-0.03,0.044-0.063
		c-0.595-0.678-1.27-1.21-1.985-1.608c-0.752-0.415-1.551-0.677-2.359-0.771c-2.113-0.24-4.259,0.66-5.687,2.821
		c-0.019,0.026-0.057,0.026-0.07,0c-0.274-0.492-0.54-1.03-0.787-1.603c-0.569-1.323-1.042-2.817-1.29-4.293
		c-0.007-0.044-0.067-0.044-0.072,0c-0.247,1.483-0.723,2.985-1.294,4.316c-0.248,0.561-0.51,1.101-0.779,1.581
		c-0.015,0.026-0.048,0.026-0.068,0c-2.499-3.78-7.184-3.706-10.031-0.442c-0.031,0.033,0.004,0.081,0.044,0.063
		c1.903-0.903,5.495-0.636,7.292,1.944c0.023,0.037-0.007,0.083-0.048,0.063c-2.779-1.167-7.075-0.404-9.36,2.32
		c-0.824,0.97-1.386,2.195-1.532,3.671c-0.004,0.044,0.059,0.07,0.078,0.03c0.18-0.337,0.626-1.052,1.454-1.779
		c1.336-1.181,3.675-2.379,7.533-2.019c0.048,0.007,0.056,0.079,0.011,0.083c-1.982,0.243-6.042,2.007-7.544,6.034
		c-0.667,1.784-0.833,4.004-0.086,6.743c0.012,0.044,0.079,0.041,0.079-0.005c0-0.063,0.004-0.127,0.007-0.187
		c0.037-3.664,2.136-8.566,7.32-9.817c0.041-0.007,0.068,0.048,0.037,0.074c-5.803,5.099-5.225,11.387-3.334,15.102
		c0.019,0.038,0.082,0.023,0.078-0.022c-0.251-2.805-0.457-7.812,4.196-11.596c0.033-0.027,0.09,0.011,0.068,0.052
		c-1.072,1.716-3.612,8.499,1.592,14.647c0.03,0.033,0.089,0.007,0.074-0.035c-0.877-2.101-2.045-9.439,2.128-12.069
		c0.026-0.015,0.064,0,0.064,0.031c0.456,5.374,1.403,16.315-0.545,28.104c-3.356-2.565-6.896-4.832-10.398-6.155
		c-0.434-0.164-0.861-0.31-1.281-0.45c-3.623-1.187-6.933-1.52-9.83-1.392c-4.641,0.198-8.192,1.587-10.14,2.562
		c-0.393,0.198-0.726,0.378-0.986,0.527c-0.104,0.061-0.028,0.214,0.084,0.177c0.303-0.098,0.603-0.18,0.902-0.262
		c3.571-1.008,6.949-1.275,10.14-0.997c3.492,0.304,6.766,1.262,9.83,2.645c4.292,1.933,8.184,4.692,11.695,7.611
		c-4.957,4.318-9.148,8.525-11.695,10.001c-0.131,0.072-0.254,0.142-0.376,0.206c-0.61-0.835-1.666-1.315-2.824-1.063
		c-1.003,0.22-1.828,1.03-2.053,2.026c-0.206,0.892,0.027,1.858,0.532,2.36c1.355,1.353,2.921,1.441,4.72,0.688
		c3.428-1.441,7.7-5.984,12.95-10.779c0.433-0.401,0.876-0.805,1.329-1.207c0.453,0.398,0.891,0.798,1.327,1.199
		c2.379,2.173,4.55,4.292,6.544,6.098c0.816,0.741,1.603,1.43,2.359,2.049c1.172,0.955,2.27,1.742,3.297,2.284
		c2.003,1.057,3.741,1.188,5.228-0.115c0.083-0.072,0.166-0.14,0.245-0.217c0.34-0.342,0.737-1.469,0.535-2.36
		c-0.121-0.516-0.397-0.981-0.779-1.341c-0.352-0.337-0.789-0.577-1.273-0.684c-1.157-0.252-2.217,0.228-2.827,1.063
		c-0.341-0.173-0.72-0.409-1.128-0.689c-0.941-0.648-2.045-1.566-3.297-2.656c-0.742-0.652-1.528-1.364-2.359-2.121
		c-1.623-1.467-3.398-3.094-5.287-4.742c1.675-1.393,3.436-2.746,5.287-3.993c0.771-0.52,1.558-1.023,2.359-1.502
		c1.067-0.636,2.169-1.225,3.297-1.764c1.677-0.802,3.419-1.483,5.228-2c3.745-1.068,7.764-1.439,12.087-0.75
		c1.404,0.225,2.836,0.551,4.308,1.012C433.63,263.006,433.708,262.853,433.604,262.793"/>
	<polygon style="fill:#BB2026;" points="387.736,183.217 394.153,189.359 387.995,195.761 381.582,189.619 	"/>
	<polygon style="fill:#BB2026;" points="402.419,189.618 408.828,195.761 414.986,189.36 408.573,183.216 	"/>
	<polygon style="fill:#BB2026;" points="393.386,197.687 398.384,202.47 403.174,197.484 398.177,192.705 	"/>
	<polygon style="fill:#BB2026;" points="411.698,200.422 416.69,205.209 421.482,200.223 416.489,195.44 	"/>
	<polygon style="fill:#BB2026;" points="385.22,205.306 390.212,210.093 395.004,205.107 390.015,200.324 	"/>
	<polygon style="fill:#BB2026;" points="401.978,205.886 406.967,210.67 411.762,205.687 406.768,200.901 	"/>
	
		<rect x="396.433" y="209.118" transform="matrix(0.6921 -0.7218 0.7218 0.6921 -29.8884 353.0337)" style="fill:#BB2026;" width="4.865" height="4.865"/>
	
		<rect x="409.685" y="211.761" transform="matrix(0.692 -0.7219 0.7219 0.692 -27.6894 363.4884)" style="fill:#BB2026;" width="4.866" height="4.864"/>
	
		<rect x="438.526" y="186.507" transform="matrix(0.9836 -0.1805 0.1805 0.9836 -27.3658 83.2954)" style="fill:#BB2026;" width="11.079" height="11.059"/>
	
		<rect x="424.124" y="191.271" transform="matrix(0.9836 -0.1803 0.1803 0.9836 -28.2588 80.4628)" style="fill:#BB2026;" width="8.887" height="8.875"/>
	<polygon style="fill:#BB2026;" points="440.295,204.312 441.898,213.04 450.636,211.444 449.041,202.716 	"/>
	
		<rect x="428.807" y="204.904" transform="matrix(0.9836 -0.1806 0.1806 0.9836 -30.5184 81.482)" style="fill:#BB2026;" width="6.92" height="6.909"/>
	
		<rect x="442.051" y="217.815" transform="matrix(0.9837 -0.1801 0.1801 0.9837 -32.5599 83.8343)" style="fill:#BB2026;" width="6.92" height="6.908"/>
	
		<rect x="418.604" y="207.668" transform="matrix(0.9837 -0.1799 0.1799 0.9837 -31.0936 79.3691)" style="fill:#BB2026;" width="6.924" height="6.91"/>
	
		<rect x="430.965" y="216.569" transform="matrix(0.9836 -0.1806 0.1806 0.9836 -32.5893 82.0633)" style="fill:#BB2026;" width="6.919" height="6.908"/>
	
		<rect x="422.121" y="217.593" transform="matrix(0.9836 -0.1802 0.1802 0.9836 -32.6982 80.1066)" style="fill:#BB2026;" width="4.868" height="4.861"/>
	
		<rect x="431.318" y="227.478" transform="matrix(0.9837 -0.1797 0.1797 0.9837 -34.2608 81.7115)" style="fill:#BB2026;" width="4.868" height="4.857"/>
	<polygon style="fill:#BB2026;" points="470.029,223.225 465.264,233.215 475.276,237.964 480.033,227.978 	"/>
	<polygon style="fill:#BB2026;" points="455.825,218.61 452.007,226.623 460.031,230.432 463.851,222.423 	"/>
	<polygon style="fill:#BB2026;" points="462.394,238.346 458.573,246.362 466.604,250.168 470.425,242.159 	"/>
	<polygon style="fill:#BB2026;" points="451.875,232.338 448.9,238.575 455.155,241.545 458.13,235.305 	"/>
	<polygon style="fill:#BB2026;" points="455.048,250.542 452.075,256.782 458.322,259.749 461.301,253.509 	"/>
	<polygon style="fill:#BB2026;" points="441.981,228.623 439.007,234.863 445.258,237.83 448.234,231.59 	"/>
	<polygon style="fill:#BB2026;" points="446.787,243.058 443.814,249.298 450.061,252.265 453.039,246.024 	"/>
	<polygon style="fill:#BB2026;" points="439.27,238.659 437.176,243.049 441.572,245.135 443.667,240.749 	"/>
	
		<rect x="439.656" y="252.851" transform="matrix(0.4299 -0.9029 0.9029 0.4299 21.5577 544.7073)" style="fill:#BB2026;" width="4.862" height="4.866"/>
	<polygon style="fill:#BB2026;" points="475.42,271.049 465.708,276.364 471.037,286.063 480.75,280.748 	"/>
	<polygon style="fill:#BB2026;" points="466.608,259.013 458.816,263.279 463.09,271.056 470.881,266.792 	"/>
	<polygon style="fill:#BB2026;" points="460.367,278.854 452.571,283.12 456.849,290.9 464.64,286.634 	"/>
	<polygon style="fill:#BB2026;" points="455.358,267.838 449.29,271.16 452.616,277.218 458.687,273.895 	"/>
	<polygon style="fill:#BB2026;" points="447.26,284.454 441.191,287.776 444.516,293.833 450.589,290.511 	"/>
	<polygon style="fill:#BB2026;" points="449.513,259.047 443.441,262.37 446.77,268.427 452.842,265.105 	"/>
	<polygon style="fill:#BB2026;" points="444.949,273.56 438.876,276.882 442.207,282.939 448.277,279.617 	"/>
	<polygon style="fill:#BB2026;" points="441.429,265.603 437.159,267.941 439.503,272.199 443.771,269.866 	"/>
	<polygon style="fill:#BB2026;" points="434.933,277.43 430.663,279.768 433.004,284.026 437.275,281.692 	"/>
	
		<rect x="440.048" y="312.248" transform="matrix(0.1227 -0.9924 0.9924 0.1227 75.5124 721.0015)" style="fill:#BB2026;" width="11.06" height="11.082"/>
	
		<rect x="442.275" y="297.485" transform="matrix(0.1231 -0.9924 0.9924 0.1231 92.0847 708.071)" style="fill:#BB2026;" width="8.872" height="8.887"/>
	
		<rect x="425.58" y="309.93" transform="matrix(0.1231 -0.9924 0.9924 0.1231 65.0947 702.4183)" style="fill:#BB2026;" width="8.874" height="8.889"/>
	
		<rect x="430.057" y="298.203" transform="matrix(0.1228 -0.9924 0.9924 0.1228 80.9113 694.8643)" style="fill:#BB2026;" width="6.908" height="6.923"/>
	
		<rect x="413.747" y="306.948" transform="matrix(0.1224 -0.9925 0.9925 0.1224 58.0589 686.4791)" style="fill:#BB2026;" width="6.91" height="6.924"/>
	
		<rect x="430.468" y="287.66" transform="matrix(0.1227 -0.9924 0.9924 0.1227 91.7604 686.0471)" style="fill:#BB2026;" width="6.909" height="6.925"/>
	
		<rect x="418.26" y="296.761" transform="matrix(0.1227 -0.9924 0.9924 0.1227 72.009 681.9077)" style="fill:#BB2026;" width="6.907" height="6.924"/>
	
		<rect x="422.24" y="288.393" transform="matrix(0.1224 -0.9925 0.9925 0.1224 84.0603 676.7138)" style="fill:#BB2026;" width="4.858" height="4.866"/>
	
		<rect x="410.037" y="294.189" transform="matrix(0.123 -0.9924 0.9924 0.123 67.3515 669.4628)" style="fill:#BB2026;" width="4.86" height="4.869"/>
	<polygon style="fill:#BB2026;" points="407.987,333.168 399.866,325.642 392.325,333.749 400.448,341.27 	"/>
	<polygon style="fill:#BB2026;" points="406.492,178.255 398.372,170.73 390.831,178.835 398.952,186.36 	"/>
	<polygon style="fill:#BB2026;" points="416.653,321.026 410.14,314.988 404.089,321.491 410.604,327.525 	"/>
	<polygon style="fill:#BB2026;" points="395.82,321.371 389.303,315.334 383.257,321.836 389.771,327.871 	"/>
	<polygon style="fill:#BB2026;" points="404.714,313.152 399.638,308.451 394.93,313.515 400.003,318.216 	"/>
	<polygon style="fill:#BB2026;" points="386.361,310.719 381.289,306.018 376.58,311.082 381.655,315.783 	"/>
	<polygon style="fill:#BB2026;" points="411.227,304.844 406.157,300.143 401.447,305.207 406.516,309.908 	"/>
	<polygon style="fill:#BB2026;" points="395.991,305.096 390.917,300.395 386.208,305.456 391.28,310.157 	"/>
	
		<rect x="396.575" y="296.951" transform="matrix(0.6799 -0.7333 0.7333 0.6799 -91.8211 388.3979)" style="fill:#BB2026;" width="4.863" height="4.862"/>
	
		<rect x="383.28" y="294.525" transform="matrix(0.6797 -0.7335 0.7335 0.6797 -94.2706 378.0404)" style="fill:#BB2026;" width="4.865" height="4.865"/>
	
		<rect x="348.597" y="314.111" transform="matrix(0.9805 -0.1965 0.1965 0.9805 -55.896 75.8044)" style="fill:#BB2026;" width="11.08" height="11.059"/>
	
		<rect x="365.129" y="311.276" transform="matrix(0.9806 -0.1963 0.1963 0.9806 -54.773 78.6703)" style="fill:#BB2026;" width="8.888" height="8.872"/>
	
		<rect x="348.029" y="299.389" transform="matrix(0.9805 -0.1967 0.1967 0.9805 -52.866 75.2486)" style="fill:#BB2026;" width="8.889" height="8.873"/>
	
		<rect x="362.204" y="299.672" transform="matrix(0.9805 -0.1964 0.1964 0.9805 -52.4034 77.7037)" style="fill:#BB2026;" width="6.919" height="6.909"/>
	<polygon style="fill:#BB2026;" points="379.888,302.901 378.532,296.128 371.741,297.481 373.105,304.261 	"/>
	
		<rect x="359.851" y="288.044" transform="matrix(0.9804 -0.1968 0.1968 0.9804 -50.2556 77.1882)" style="fill:#BB2026;" width="6.92" height="6.909"/>
	
		<rect x="370.744" y="288.905" transform="matrix(0.9805 -0.1965 0.1965 0.9805 -49.9739 79.0138)" style="fill:#BB2026;" width="4.868" height="4.86"/>
	
		<rect x="361.385" y="279.175" transform="matrix(0.9805 -0.1965 0.1965 0.9805 -48.2444 76.9849)" style="fill:#BB2026;" width="4.868" height="4.86"/>
	<polygon style="fill:#BB2026;" points="327.661,288.885 332.255,278.823 322.171,274.235 317.575,284.3 	"/>
	<polygon style="fill:#BB2026;" points="341.939,293.264 345.621,285.192 337.534,281.514 333.849,289.585 	"/>
	
		<rect x="328.4" y="263.32" transform="matrix(0.4152 -0.9097 0.9097 0.4152 -48.9484 459.3799)" style="fill:#BB2026;" width="8.876" height="8.886"/>
	<polygon style="fill:#BB2026;" points="345.659,279.475 348.529,273.185 342.233,270.323 339.359,276.609 	"/>
	
		<rect x="348.917" y="287.158" transform="matrix(0.4152 -0.9097 0.9097 0.4152 -58.3105 490.5299)" style="fill:#BB2026;" width="6.911" height="6.921"/>
	<polygon style="fill:#BB2026;" points="342.186,261.324 345.055,255.038 338.755,252.173 335.886,258.462 	"/>
	
		<rect x="350.443" y="274.99" transform="matrix(0.4152 -0.9097 0.9097 0.4152 -46.3477 484.8022)" style="fill:#BB2026;" width="6.912" height="6.92"/>
	<polygon style="fill:#BB2026;" points="350.567,268.669 353.437,262.385 347.141,259.519 344.27,265.808 	"/>
	<polygon style="fill:#BB2026;" points="358.159,272.944 360.178,268.52 355.747,266.505 353.728,270.93 	"/>
	<polygon style="fill:#BB2026;" points="356.272,259.588 358.291,255.164 353.859,253.149 351.84,257.574 	"/>
	<polygon style="fill:#BB2026;" points="321.473,241.157 331.099,235.68 325.608,226.073 315.985,231.549 	"/>
	<polygon style="fill:#BB2026;" points="330.486,253.046 338.21,248.652 333.801,240.944 326.081,245.341 	"/>
	<polygon style="fill:#BB2026;" points="336.397,233.104 344.121,228.71 339.713,220.998 331.992,225.395 	"/>
	<polygon style="fill:#BB2026;" points="341.589,244.036 347.597,240.613 344.171,234.616 338.159,238.036 	"/>
	<polygon style="fill:#BB2026;" points="349.413,227.289 355.421,223.866 351.993,217.868 345.982,221.288 	"/>
	<polygon style="fill:#BB2026;" points="347.576,252.728 353.592,249.308 350.165,243.304 344.149,246.727 	"/>
	<polygon style="fill:#BB2026;" points="351.902,238.142 357.913,234.722 354.487,228.722 348.475,232.142 	"/>
	<polygon style="fill:#BB2026;" points="355.553,246.039 359.782,243.631 357.37,239.413 353.14,241.818 	"/>
	<polygon style="fill:#BB2026;" points="361.849,234.107 366.082,231.699 363.67,227.481 359.437,229.886 	"/>
	
		<rect x="345.007" y="188.391" transform="matrix(0.1061 -0.9944 0.9944 0.1061 120.4959 521.9034)" style="fill:#BB2026;" width="11.059" height="11.079"/>
	
		<rect x="345.231" y="205.359" transform="matrix(0.1063 -0.9943 0.9943 0.1063 103.8869 535.1918)" style="fill:#BB2026;" width="8.872" height="8.89"/>
	
		<rect x="361.716" y="192.64" transform="matrix(0.1066 -0.9943 0.9943 0.1066 131.172 540.1518)" style="fill:#BB2026;" width="8.873" height="8.891"/>
	
		<rect x="359.416" y="206.393" transform="matrix(0.1065 -0.9943 0.9943 0.1065 115.5593 548.3067)" style="fill:#BB2026;" width="6.909" height="6.921"/>
	<polygon style="fill:#BB2026;" points="375.225,203.908 382.106,204.641 382.84,197.776 375.96,197.034 	"/>
	
		<rect x="359.176" y="216.942" transform="matrix(0.1068 -0.9943 0.9943 0.1068 104.7784 557.4327)" style="fill:#BB2026;" width="6.911" height="6.919"/>
	
		<rect x="371.235" y="207.637" transform="matrix(0.1068 -0.9943 0.9943 0.1068 124.8011 561.1107)" style="fill:#BB2026;" width="6.911" height="6.92"/>
	
		<rect x="369.461" y="218.109" transform="matrix(0.1061 -0.9944 0.9944 0.1061 113.136 566.9362)" style="fill:#BB2026;" width="4.857" height="4.87"/>
	
		<rect x="381.564" y="212.108" transform="matrix(0.106 -0.9944 0.9944 0.106 129.951 573.6295)" style="fill:#BB2026;" width="4.86" height="4.871"/>
	<polygon style="fill:#757B81;" points="62.12,265.844 68.698,265.844 68.698,295.805 73.832,295.805 73.832,300.988 62.12,300.988 
			"/>
	<rect x="73.078" y="295.806" style="fill:#757B81;" width="6.034" height="5.185"/>
	<rect x="78.361" y="295.806" style="fill:#757B81;" width="6.034" height="5.185"/>
	<rect x="83.643" y="295.806" style="fill:#757B81;" width="6.033" height="5.185"/>
	<rect x="88.926" y="295.806" style="fill:#757B81;" width="6.033" height="5.185"/>
	<rect x="93.208" y="295.806" style="fill:#757B81;" width="6.034" height="5.185"/>
	<rect x="98.492" y="295.806" style="fill:#757B81;" width="6.033" height="5.185"/>
	<rect x="103.775" y="295.806" style="fill:#757B81;" width="6.033" height="5.185"/>
	<rect x="109.057" y="295.806" style="fill:#757B81;" width="6.033" height="5.185"/>
	<rect x="114.337" y="295.806" style="fill:#757B81;" width="6.033" height="5.185"/>
	<rect x="120.369" y="295.806" style="fill:#757B81;" width="6.034" height="5.185"/>
	<rect x="125.652" y="295.806" style="fill:#757B81;" width="6.034" height="5.185"/>
	<rect x="130.936" y="295.806" style="fill:#757B81;" width="6.033" height="5.185"/>
	<rect x="136.219" y="295.806" style="fill:#757B81;" width="6.033" height="5.185"/>
	<rect x="141.497" y="295.806" style="fill:#757B81;" width="6.033" height="5.185"/>
	<rect x="131.686" y="295.807" style="fill:#757B81;" width="6.033" height="5.185"/>
	<rect x="136.968" y="295.807" style="fill:#757B81;" width="6.033" height="5.185"/>
	<rect x="141.251" y="295.807" style="fill:#757B81;" width="6.033" height="5.185"/>
	<rect x="146.534" y="295.807" style="fill:#757B81;" width="6.033" height="5.185"/>
	<rect x="151.817" y="295.807" style="fill:#757B81;" width="6.034" height="5.185"/>
	<rect x="157.1" y="295.807" style="fill:#757B81;" width="6.034" height="5.185"/>
	<rect x="162.379" y="295.807" style="fill:#757B81;" width="6.034" height="5.185"/>
	<rect x="168.412" y="295.807" style="fill:#757B81;" width="6.033" height="5.185"/>
	<rect x="173.695" y="295.807" style="fill:#757B81;" width="6.033" height="5.185"/>
	<rect x="178.978" y="295.807" style="fill:#757B81;" width="6.033" height="5.185"/>
	<rect x="184.261" y="295.807" style="fill:#757B81;" width="6.034" height="5.185"/>
	<rect x="189.54" y="295.807" style="fill:#757B81;" width="6.033" height="5.185"/>
	<rect x="191.775" y="295.807" style="fill:#757B81;" width="6.034" height="5.185"/>
	<rect x="197.058" y="295.807" style="fill:#757B81;" width="6.034" height="5.185"/>
	<path style="fill:#757B81;" d="M199.347,298.399c0-1.546,1.993-2.591,2.99-2.591h5.884v-18.245h6.579v18.245h5.138v5.182h-17.6
		C201.34,300.989,199.347,299.993,199.347,298.399"/>
	<path style="fill:#757B81;" d="M207.474,304.629c1.744,0,3.237,1.445,3.237,3.24c0,1.744-1.444,3.238-3.237,3.238
		c-1.844,0-3.24-1.493-3.24-3.238C204.234,306.075,205.679,304.629,207.474,304.629"/>
	<path style="fill:#757B81;" d="M215.449,304.629c1.744,0,3.24,1.445,3.24,3.24c0,1.744-1.444,3.238-3.24,3.238
		c-1.844,0-3.24-1.493-3.24-3.238C212.208,306.075,213.654,304.629,215.449,304.629"/>
	<path style="fill:#757B81;" d="M216.188,298.399c0-1.546,1.993-2.591,2.99-2.591h17.398c0.149-1.198,0.25-2.542,0.25-3.789
		c0-6.332-2.59-9.572-9.722-9.572c-1.941,0-3.786,0.202-5.582,0.5v-5.134c1.893-0.351,4.037-0.548,6.183-0.548
		c11.215,0,15.651,4.934,15.651,14.504c0,1.198-0.048,2.592-0.202,4.039h3.144v5.182h-27.12
		C218.181,300.989,216.188,299.993,216.188,298.399"/>
	<path style="fill:#757B81;" d="M245.541,300.99c-0.997,0-2.992-0.997-2.992-2.59c0-1.546,1.994-2.592,2.992-2.592h5.88v-29.962
		h6.578v35.144H245.541z"/>
	<rect x="265.97" y="265.846" style="fill:#757B81;" width="6.579" height="35.144"/>
	<g>
		<g>
			<path style="fill:#757B81;stroke:#757B81;stroke-miterlimit:10;" d="M43.976,300.987c-8.484,0-12.726-3.768-12.726-11.304
				c0-3.444,1.019-6.264,3.057-8.46c2.195-2.385,5.221-3.579,9.077-3.579c6.92,0,10.38,3.626,10.38,10.878v12.466H43.976z
				 M49.403,289.28c0-5.404-2.133-8.105-6.398-8.105c-2.243,0-4.013,0.743-5.309,2.228c-1.295,1.438-1.943,3.381-1.943,5.83
				c0,5.467,2.947,8.199,8.84,8.199h4.811V289.28z M37.673,272.975c-0.49-0.505-0.735-1.137-0.735-1.895
				c0-0.696,0.245-1.295,0.735-1.802c0.489-0.505,1.098-0.758,1.824-0.758c0.711,0,1.319,0.245,1.825,0.735
				c0.506,0.506,0.759,1.114,0.759,1.825c0,0.727-0.253,1.351-0.759,1.872c-0.506,0.506-1.114,0.759-1.825,0.759
				C38.77,273.71,38.162,273.465,37.673,272.975z M44.83,272.975c-0.506-0.505-0.759-1.137-0.759-1.895
				c0-0.696,0.252-1.295,0.759-1.802c0.505-0.505,1.121-0.758,1.848-0.758c0.711,0,1.311,0.245,1.801,0.735
				c0.489,0.506,0.735,1.114,0.735,1.825c0,0.742-0.245,1.366-0.735,1.872c-0.49,0.506-1.09,0.759-1.801,0.759
				C45.951,273.71,45.335,273.465,44.83,272.975z"/>
		</g>
	</g>
</g>
</svg>
